<svg xmlns="http://www.w3.org/2000/svg" viewBox="0 0 320.1 398.59"><defs><style>.cls-1{opacity:0.51;}</style></defs><g id="Layer_2" data-name="Layer 2"><g id="Layer_1-2" data-name="Layer 1"><path class="cls-1" d="M143.05,199.55l-136-136a23.9,23.9,0,0,1,0-33.9l22.6-22.6a23.9,23.9,0,0,1,33.9,0l96.4,96.4,96.4-96.4a23.9,23.9,0,0,1,33.9,0l22.8,22.5a23.9,23.9,0,0,1,0,33.9l-136,136a23.93,23.93,0,0,1-34,.1Z"/><path d="M177.05,391.55l136-136a23.9,23.9,0,0,0,0-33.9l-22.6-22.6a23.9,23.9,0,0,0-33.9,0l-96.5,96.3L63.65,199a23.9,23.9,0,0,0-33.9,0l-22.7,22.6a23.9,23.9,0,0,0,0,33.9l136,136A23.93,23.93,0,0,0,177.05,391.55Z"/></g></g></svg>